<?xml version="1.0" standalone="yes"?>
<svg xmlns="http://www.w3.org/2000/svg" width="475" height="474">
<path style="fill:#e5e5e5; stroke:none;" d="M0 0L0 474L475 474L475 0L0 0z"/>
<path style="fill:#b2b2b2; stroke:none;" d="M232 32L231 32C225.36 24.2164 215.821 36.7718 209.999 38.5849C186.414 45.9299 162.85 56.7852 143.09 71.9097C98.218 106.253 68.4362 158.627 63.1042 215C61.465 232.33 64.0172 249.187 65.8248 266.001C66.3133 270.544 64.4756 274.559 64.4699 279C64.4519 293.027 70.3299 322.001 83 330L84 325L85 336L88 334L89 340L92 339L96 349C104.061 353.73 111.397 365.673 117.579 372.841C122.322 378.34 128.92 382.647 133.177 388.478C137.601 394.537 138.448 402.663 142.673 409C155.956 428.925 179.991 454.825 202 464.949C231.34 478.446 267.463 473.168 298 468.62C304.399 467.667 310.484 463.979 317 462.968C327.194 461.387 343.877 465.038 352.826 459.972C364.072 453.606 356.801 431.253 345 431L345 430C354.418 427.718 355.796 421.512 361.594 414C369.282 404.04 386.332 392.973 386 379L390 379L389 376L390 375L393 376L396 366C403.056 363.199 408.21 354.149 411.954 347.715C420.838 332.449 428.052 317.647 433.785 301C460.433 223.622 438.63 129.826 372.91 77.7346C351.973 61.1391 328.931 50.3275 304 41.3117C296.311 38.5313 278.027 39.3027 274 32L257 29C256.602 23.9557 256.854 16.5263 254.062 12.1744C249.795 5.52438 239.977 5.54984 235.603 12.044C232.683 16.38 232.461 26.7174 232 32z"/>
<path style="fill:#e5e5e5; stroke:none;" d="M255 16C249.65 13.6346 244.889 8.86038 239.303 13.804C233.728 18.7378 237.145 25.9905 237.716 32C239.088 46.4421 238 61.4915 238 76L238 266C238 282.333 238.084 298.668 237.999 315C237.97 320.545 234.692 327.7 238.728 332.467C242.83 337.313 252.639 337.138 253.852 329.91C254.89 323.72 251.264 318.935 251.019 313C250.307 295.731 251 278.286 251 261C251 186.045 249.6 110.94 251.005 36C251.137 28.9492 255 23.4947 255 16z"/>
<path style="fill:#b89465; stroke:none;" d="M195 415L199 416L198 399L196 400C191.786 392.614 181.182 393.175 174 389.37C159.471 381.671 145.924 371.148 134.004 359.91C87.2378 315.822 74.8976 245.417 88.3858 185C99.1 137.008 141.2 87.8992 187 70.4738C195.482 67.2468 204.081 63.2509 213 61.375C218.921 60.1297 225.611 60.8743 230.956 57.6327C236.054 54.5412 237.391 47.4515 235.258 42.0146C229.632 27.6793 217.155 40.9558 209 43.4298C183.37 51.205 160.059 61.1819 139 78.3102C82.5246 124.244 56.326 197.672 68.3241 269C76.6713 318.624 105.007 364.346 145.83 393.785C157.302 402.058 170.491 412.592 183 418.821C187.806 421.214 192.63 419.516 195 415z"/>
<path style="fill:#2abbb8; stroke:none;" d="M264.004 36.652C253.912 38.4603 253.331 54.3662 263.015 57.2569C266.705 58.3582 270.304 56.2266 274 56.1829C281.155 56.0982 289.118 58.069 296 59.8843C333.139 69.6801 366.042 92.803 389.486 123C460.717 214.75 422.97 352.735 318 399.138C295.153 409.238 267.922 413.959 243 411.907C237.137 411.424 232.665 406.342 227 406.242C214.954 406.03 214.018 424.743 225.015 427.552C228.567 428.459 232.369 426.961 236 427.3C255.376 429.112 275.017 427.969 294 423.65C428.309 393.096 484.929 224.417 403.665 116C376.35 79.5579 338.114 52.4939 293 43.3997C285.345 41.8566 271.136 35.374 264.004 36.652z"/>
<path style="fill:#f19113; stroke:none;" d="M224.004 38.8217C219.519 40.0467 216.492 44.3958 211.996 45.9568C184.872 55.3754 160.791 63.5985 138 82.3218C79.6916 130.222 51.9455 215.405 75.5185 288C90.077 332.834 114.323 369.127 154 395.742C162.093 401.17 171.434 404.848 179 411.011C182.367 413.753 186.356 417.253 190.867 414.677C196.715 411.338 195.915 401.653 189.945 399.008C186.098 397.304 181.86 397.481 178 395.51C129.768 370.885 96.8145 325.023 84.5247 273C67.0461 199.013 101.144 120.472 164 79.3441C178.109 70.1121 193.01 63.9218 209 58.8364C215.29 56.836 225.39 57.5887 230.517 53.294C236.641 48.1643 232.521 36.4951 224.004 38.8217z"/>
<path style="fill:#b89465; stroke:none;" d="M253 46L253 51L254 51L253 46M315.667 49.3333L316.333 49.6667L315.667 49.3333M271 56L271 57L278 57L271 56M289 59L289 60L295 60L289 59z"/>
<path style="fill:#e5e5e5; stroke:none;" d="M318 73L318 74L322 75L318 73M323 76L323 77L328 78L323 76M330.667 80.3333L331.333 80.6667L330.667 80.3333M336 83L340 84L336 83M169 83L169 85L171 83L169 83M164 87L164 88L168 87L164 87M153 95C158.127 94.8757 161.495 93.6746 164 89L153 95M165 94C160.154 99.024 155.229 96.2716 149 96L150 99L154 98C150.523 102.775 142.008 101.404 140.256 106.019C138.302 111.165 146.786 109.98 146.793 114C146.798 116.468 143.041 117.278 141.482 118.495C135.506 123.16 136.876 127.078 128 127L128 120L127 120L126 123L124 122C117.985 132.033 108.327 142.317 106 154C102.886 154.431 103.103 157.087 103 160C98.7941 160.529 100.455 165.516 99.0139 168.866C94.8472 178.549 93 184.268 93 195L94 195L98 191C98.0094 203.116 112.906 218.64 126 212.566C136.869 207.525 144.789 192.211 151.951 183.143C155.292 178.913 160.145 176.584 163.441 172C174.661 156.395 193.437 131.754 182.91 111.305C179.114 103.929 170.053 103.652 167 94L165 94M147 99L146 100L146 101L147 102L148 102L149 101L149 100L147 99M137 109L136 112L137 109M132 115L136 114L132 115M130 115L132 118L130 115M302 131L302 132L337 131C327.81 127.144 311.745 129.768 302 131M345 133.778C341.088 134.262 337.994 137.266 334 137.811C321.121 139.568 307 138 294 138C288.58 138 279.32 136.177 275.603 141.148C271.693 146.379 274.859 156.018 274.986 162C275.355 179.317 275 196.679 275 214L275 301C275 308.032 271.749 325.735 277.163 330.682C280.754 333.964 286.529 333 291 333L323 333C329.824 333 343.01 337.359 348.711 335.421C356.906 332.634 356.916 319.776 348.985 316.746C343.896 314.802 338.966 318.306 334 318.871C324.56 319.946 314.501 319 305 319C300.862 319 293.804 320.325 290.434 317.397C284.027 311.829 288 288.027 288 280L288 189C288 179.94 284.387 161.004 289.028 153.148C291.815 148.43 298.514 150.206 303.004 149.828C312.621 149.018 325.9 148.233 335.424 150.008C340.31 150.919 343.583 155.363 348.981 153.257C358.425 149.573 356.046 132.409 345 133.778z"/>
<path style="fill:#b89465; stroke:none;" d="M277 135L277 136L337 136L318 135L277 135z"/>
<path style="fill:#e5e5e5; stroke:none;" d="M200 168C205.228 189.957 201 217.423 201 240L201 387C201 402.511 202.182 418.543 200.942 434C200.633 437.859 198.108 441.107 198.116 444.985C198.127 450.193 202.941 454.102 207.997 453.847C212.529 453.619 216.633 449.631 216.723 445C216.797 441.232 214.276 437.828 214.044 434C213.083 418.123 214 401.909 214 386L214 198L214 153C214 148.347 215.652 140.226 210.852 137.461C205.841 134.574 201.668 138.135 198.81 142.043C192.416 150.787 186.841 160.141 180.625 169C161.242 196.624 142.821 225.462 124.772 254C121.942 258.474 118.75 264.142 114.791 267.687C111.083 271.006 106.288 271.481 104.747 277.001C102.434 285.285 113.343 290.908 119.696 286.258C128.546 279.779 135.45 262.258 141.44 253C148.183 242.578 155.434 232.49 162.119 222.004C172.648 205.487 184.042 179.479 200 168M397 142L397 145L399 145L399 142L397 142M360 144C359.741 152.02 352.952 160.881 344.004 159.516C340.607 158.998 338.249 156.121 334.91 155.588C328.806 154.614 321.27 156 315 156L315 157L324 158C313.067 176.161 308.96 198.492 303.961 219C301.538 228.94 297.952 239.563 299.184 250C300.72 263.002 305.666 276.59 309.671 289C311.954 296.077 315.783 303.678 313 311C326.936 314.327 354.703 304.428 358.812 323C359.68 326.923 359.967 330.996 360 335C368.752 331.994 386.22 325.888 395 329C403.854 312.256 413.31 296.487 418.52 278C426.133 250.989 424.339 217.171 418.701 190C416.511 179.446 411.031 169.226 408 159L407 159L406 167C395.984 157.308 375.929 150.229 362 150L360 144M400 149L402 152L402 149L400 149z"/>
<path style="fill:#b89465; stroke:none;" d="M253 152L252 262L253 315L254 315L255 202L254.039 167L253 152M292 152L292 153L296 153L292 152z"/>
<path style="fill:#e5e5e5; stroke:none;" d="M403 155L404 159L405 159L405 155L403 155z"/>
<path style="fill:#b89465; stroke:none;" d="M216 161L216 301L217 301L219.09 194L216 161M235.333 166.667L235.667 167.333L235.333 166.667M235 169L232 202L235 287L236 287L236 205L235 169M197 173L197 177L198 177L197 173M198 181L198 235L199 235L199 199L198 181z"/>
<path style="fill:#e5e5e5; stroke:none;" d="M90 187L90 199L91 199L92 187L90 187M161.333 187.667L161.667 188.333L161.333 187.667z"/>
<path style="fill:#b89465; stroke:none;" d="M186.333 188.667L186.667 189.333L186.333 188.667M228 197C227.196 201.245 226.492 203.278 222 204L230 214L230 197L228 197M179 198L179 200L181 200L181 198L179 198z"/>
<path style="fill:#e5e5e5; stroke:none;" d="M133 299L123 342L126 347L130 348L129 351L130 352C147.941 347.899 166.404 358.31 181.61 344.363C186.644 339.745 186.918 332.325 186.989 326C187.16 310.879 181.319 278.077 163 274.642C148.722 271.964 146.42 298.416 133 299z"/>
<path style="fill:#b89465; stroke:none;" d="M235 293L236 294L235 293z"/>
<path style="fill:#e5e5e5; stroke:none;" d="M74 303L74 309L75 309L74 303z"/>
<path style="fill:#b89465; stroke:none;" d="M235 321L236 322L235 321M256.333 322.667L256.667 323.333L256.333 322.667M256 327L257 328L256 327z"/>
<path style="fill:#e5e5e5; stroke:none;" d="M391 333L392 334L391 333z"/>
<path style="fill:#b89465; stroke:none;" d="M279 335L279 336L339 336L320 335L279 335z"/>
<path style="fill:#e5e5e5; stroke:none;" d="M120 337L121 338L120 337M387.667 337.333L388.333 337.667L387.667 337.333z"/>
<path style="fill:#b89465; stroke:none;" d="M242 338L242 339L250 339L242 338z"/>
<path style="fill:#e5e5e5; stroke:none;" d="M313 339L313 340L339 340L313 339M348 342L349 343L348 342M133.667 353.333L134.333 353.667L133.667 353.333M136 356L136 358L138 358L138 356L136 356M280 367C274.333 366.565 268.464 375.294 272.604 380.352C274.647 382.847 278.041 383.491 280.576 385.329C283.987 387.803 285.438 388.582 289.576 387.241C292.477 386.3 294.752 385.135 296.942 382.941C309.559 370.295 287.284 353.79 280 367z"/>
<path style="fill:#b89465; stroke:none;" d="M349 381L350 382L349 381M332.667 391.333L333.333 391.667L332.667 391.333M216 394L217 395L216 394M216 396L216 426L218 438L216 396M311.667 401.333L312.333 401.667L311.667 401.333M348.667 401.333L349.333 401.667L348.667 401.333M224 405L224 406L229 406L229 404L224 405M237 410L237 411L270 412L270 410L237 410M329.667 411.333L330.333 411.667L329.667 411.333M328 412L329 413L328 412M198 421L199 422L198 421M300 422L300 423L306 422L300 422z"/>
<path style="fill:#b2b2b2; stroke:none;" d="M218 422L219 423L218 422z"/>
<path style="fill:#b89465; stroke:none;" d="M286 425L286 426L293 425L286 425M222 427L234 429.513L270 429L270 428L222 427M272 427L271 429L273 429L272 427M228 434L228 435L236 435L228 434M254 434L254 435L259 435L254 434z"/>
<path style="fill:#e5e5e5; stroke:none;" d="M223 455L232.039 452.897L242 456C241.09 450.957 237.056 435.254 229.38 440.029C224.957 442.779 224.062 450.356 223 455M251 455L260 456L255.321 439.752L251 455M301 439C300.164 446.836 298.242 455.884 308 456C306.942 451.046 306.004 440.661 301 439M327 453C317.886 451.547 324.663 443.633 319.401 440.086C315.645 437.554 314.019 443.496 314.063 446.001C314.204 453.891 325.061 460.877 331.682 454.643C339.945 446.863 327.228 431.238 327.004 446.995L327 453M337 456C345.52 457.198 353.166 457.449 354.284 448C354.572 445.561 355.345 442.591 353.393 440.603C350.538 437.697 338.844 437.794 337.434 442.148C336.104 446.254 337 451.718 337 456M289 455C284.797 449.348 283.867 446.852 286 440C276.574 441.539 278.29 457.917 289 455z"/>
<path style="fill:#b89465; stroke:none;" d="M289 443L296 442L289 443z"/>
<path style="fill:#e5e5e5; stroke:none;" d="M311 441L311 449L312 449L311 441z"/>
<path style="fill:#b89465; stroke:none;" d="M286 445L287 446L286 445M221 448L222 449L221 448z"/>
<path style="fill:#b2b2b2; stroke:none;" d="M345 449L345 454L347 454L347 449L345 449z"/>
<path style="fill:#b89465; stroke:none;" d="M230 454L230 456L232 456L232 454L230 454z"/>
<path style="fill:#e5e5e5; stroke:none;" d="M245 454L246 455L245 454M265 454L266 455L265 454z"/>
</svg>
